<?xml version="1.0" standalone="no"?>
<!DOCTYPE svg PUBLIC "-//W3C//DTD SVG 20010904//EN"
 "http://www.w3.org/TR/2001/REC-SVG-20010904/DTD/svg10.dtd">
<svg version="1.0" xmlns="http://www.w3.org/2000/svg"
 width="273.000000pt" height="274.000000pt" viewBox="0 0 273.000000 274.000000"
 preserveAspectRatio="xMidYMid meet">

<g transform="translate(0.000000,274.000000) scale(0.100000,-0.100000)"
fill="#000000" stroke="none">
<path d="M1280 2716 c-3 -3 -55 -12 -115 -21 -117 -18 -255 -58 -362 -106
-399 -179 -710 -589 -764 -1008 -6 -47 -15 -96 -20 -109 -12 -30 -11 -148 1
-209 5 -26 16 -88 25 -138 43 -259 169 -499 365 -696 194 -197 418 -317 700
-376 118 -25 382 -25 500 0 282 59 506 180 700 376 244 246 370 534 386 886
14 284 -62 557 -220 794 -212 318 -534 524 -916 587 -111 18 -271 29 -280 20z
m-598 -918 c20 -35 102 -176 182 -315 80 -139 188 -325 239 -415 52 -90 111
-191 131 -225 20 -34 36 -65 36 -69 0 -8 -130 -234 -135 -234 -2 0 -23 35 -47
78 -41 71 -388 672 -516 892 -30 52 -82 142 -115 200 -33 58 -66 115 -75 128
l-14 22 139 0 139 0 36 -62z m643 -339 c127 -220 237 -410 246 -422 16 -20 17
-19 58 50 l42 71 -80 140 c-45 77 -81 145 -81 151 0 7 43 11 130 11 127 0 130
0 146 -25 9 -14 19 -25 23 -25 8 0 121 194 121 208 0 8 -78 12 -267 14 l-267
3 -63 105 c-34 58 -62 108 -63 113 0 4 243 7 541 7 l541 0 -19 -32 c-86 -146
-318 -550 -353 -613 l-32 -60 110 -190 111 -190 -36 -65 c-67 -119 -100 -170
-106 -164 -4 4 -52 87 -109 185 -56 99 -105 179 -109 179 -4 0 -55 -84 -114
-186 -59 -102 -111 -182 -115 -177 -7 7 -204 345 -343 588 -22 39 -123 214
-225 390 -102 176 -187 323 -189 328 -2 4 58 7 134 7 l138 0 230 -401z"/>
</g>
</svg>
